<?xml version="1.0" encoding="UTF-8"?>
<!DOCTYPE svg PUBLIC "-//W3C//DTD SVG 1.1//EN" "http://www.w3.org/Graphics/SVG/1.1/DTD/svg11.dtd">
<svg xmlns="http://www.w3.org/2000/svg" version="1.1" width="941px" height="941px" style="shape-rendering:geometricPrecision; text-rendering:geometricPrecision; image-rendering:optimizeQuality; fill-rule:evenodd; clip-rule:evenodd" xmlns:xlink="http://www.w3.org/1999/xlink">
<g><path style="opacity:0.804" fill="#bbbbbb" d="M 571.5,235.5 C 572.149,236.606 572.483,237.606 572.5,238.5C 574.071,237.691 575.738,237.357 577.5,237.5C 601.303,244.435 624.97,251.768 648.5,259.5C 648.918,260.222 649.584,260.722 650.5,261C 620.206,270.656 589.873,280.156 559.5,289.5C 500.364,289.242 441.531,289.242 383,289.5C 377.079,289.891 371.412,288.891 366,286.5C 365.235,286.57 364.735,286.903 364.5,287.5C 362.694,286.976 361.028,286.309 359.5,285.5C 356.638,283.704 353.471,282.371 350,281.5C 349.235,281.57 348.735,281.903 348.5,282.5C 325.97,275.101 303.303,268.101 280.5,261.5C 283.937,260.055 287.603,259.055 291.5,258.5C 296.165,257.943 300.498,256.61 304.5,254.5C 305.209,253.596 306.209,253.263 307.5,253.5C 312.165,252.943 316.498,251.61 320.5,249.5C 325.165,248.943 329.498,247.61 333.5,245.5C 334.209,244.596 335.209,244.263 336.5,244.5C 341.165,243.943 345.498,242.61 349.5,240.5C 350.209,239.596 351.209,239.263 352.5,239.5C 357.165,238.943 361.498,237.61 365.5,235.5C 368.282,234.067 371.282,232.9 374.5,232C 436.833,231.333 499.167,231.333 561.5,232C 564.899,233.077 568.233,234.244 571.5,235.5 Z"/></g>
<g><path style="opacity:0.757" fill="#848484" d="M 365.5,235.5 C 361.498,237.61 357.165,238.943 352.5,239.5C 356.502,237.39 360.835,236.057 365.5,235.5 Z"/></g>
<g><path style="opacity:0.782" fill="#767676" d="M 571.5,235.5 C 573.786,235.595 575.786,236.262 577.5,237.5C 575.738,237.357 574.071,237.691 572.5,238.5C 572.483,237.606 572.149,236.606 571.5,235.5 Z"/></g>
<g><path style="opacity:0.757" fill="#848484" d="M 349.5,240.5 C 345.498,242.61 341.165,243.943 336.5,244.5C 340.502,242.39 344.835,241.057 349.5,240.5 Z"/></g>
<g><path style="opacity:0.757" fill="#878787" d="M 333.5,245.5 C 329.498,247.61 325.165,248.943 320.5,249.5C 324.502,247.39 328.835,246.057 333.5,245.5 Z"/></g>
<g><path style="opacity:0.757" fill="#848484" d="M 320.5,249.5 C 316.498,251.61 312.165,252.943 307.5,253.5C 311.502,251.39 315.835,250.057 320.5,249.5 Z"/></g>
<g><path style="opacity:0.757" fill="#848484" d="M 304.5,254.5 C 300.498,256.61 296.165,257.943 291.5,258.5C 295.502,256.39 299.835,255.057 304.5,254.5 Z"/></g>
<g><path style="opacity:0.702" fill="#a5a5a5" d="M 648.5,259.5 C 651.034,259.259 652.7,260.259 653.5,262.5C 653.738,264.404 654.738,265.738 656.5,266.5C 657.5,266.833 658.167,267.5 658.5,268.5C 658.738,270.404 659.738,271.738 661.5,272.5C 662.5,272.833 663.167,273.5 663.5,274.5C 663.738,276.404 664.738,277.738 666.5,278.5C 667.5,278.833 668.167,279.5 668.5,280.5C 669.08,282.749 670.413,284.415 672.5,285.5C 673.419,288.089 675.086,290.089 677.5,291.5C 678.419,294.089 680.086,296.089 682.5,297.5C 683.5,297.833 684.167,298.5 684.5,299.5C 684.738,301.404 685.738,302.738 687.5,303.5C 688.5,303.833 689.167,304.5 689.5,305.5C 689.738,307.404 690.738,308.738 692.5,309.5C 693.5,309.833 694.167,310.5 694.5,311.5C 694.738,313.404 695.738,314.738 697.5,315.5C 698.5,315.833 699.167,316.5 699.5,317.5C 700.08,319.749 701.413,321.415 703.5,322.5C 704.419,325.089 706.086,327.089 708.5,328.5C 709.419,331.089 711.086,333.089 713.5,334.5C 714.5,334.833 715.167,335.5 715.5,336.5C 715.738,338.404 716.738,339.738 718.5,340.5C 719.5,340.833 720.167,341.5 720.5,342.5C 720.738,344.404 721.738,345.738 723.5,346.5C 724.5,346.833 725.167,347.5 725.5,348.5C 725.738,350.404 726.738,351.738 728.5,352.5C 729.5,352.833 730.167,353.5 730.5,354.5C 730.738,356.404 731.738,357.738 733.5,358.5C 734.5,358.833 735.167,359.5 735.5,360.5C 736.08,362.749 737.413,364.415 739.5,365.5C 740.833,367.833 742.167,370.167 743.5,372.5C 742.094,372.973 741.427,373.973 741.5,375.5C 741.167,376.5 740.5,377.167 739.5,377.5C 739.167,377.5 738.833,377.5 738.5,377.5C 736.837,377.702 735.004,377.369 733,376.5C 730.528,377.322 728.028,377.989 725.5,378.5C 717.442,380.703 709.775,383.703 702.5,387.5C 676.369,398.39 650.035,409.056 623.5,419.5C 614.587,433.651 606.42,448.318 599,463.5C 598.329,464.252 597.496,464.586 596.5,464.5C 604.245,449.341 612.245,434.341 620.5,419.5C 600.298,376.747 579.631,333.747 558.5,290.5C 559.167,290.5 559.5,290.167 559.5,289.5C 589.873,280.156 620.206,270.656 650.5,261C 649.584,260.722 648.918,260.222 648.5,259.5 Z"/></g>
<g><path style="opacity:1" fill="#ededed" d="M 280.5,261.5 C 303.303,268.101 325.97,275.101 348.5,282.5C 352.11,283.703 355.777,284.703 359.5,285.5C 361.028,286.309 362.694,286.976 364.5,287.5C 367.579,288.304 370.579,289.304 373.5,290.5C 370.693,296.919 367.693,303.252 364.5,309.5C 353.895,331.709 343.562,354.042 333.5,376.5C 332.069,377.78 331.402,379.447 331.5,381.5C 327.13,389.583 323.13,397.916 319.5,406.5C 318.833,406.5 318.5,406.833 318.5,407.5C 317.286,410.93 315.786,414.264 314,417.5C 312.989,418.337 311.822,418.67 310.5,418.5C 274.782,403.647 238.782,389.314 202.5,375.5C 199.995,373.989 197.328,372.655 194.5,371.5C 193.167,371.5 192.5,370.833 192.5,369.5C 194.472,365.895 197.139,362.895 200.5,360.5C 202.893,359.647 204.226,357.981 204.5,355.5C 205.906,355.027 206.573,354.027 206.5,352.5C 208.117,349.216 210.45,346.549 213.5,344.5C 214.906,344.027 215.573,343.027 215.5,341.5C 217.117,338.216 219.45,335.549 222.5,333.5C 224.893,332.647 226.226,330.981 226.5,328.5C 227.906,328.027 228.573,327.027 228.5,325.5C 230.117,322.216 232.45,319.549 235.5,317.5C 236.906,317.027 237.573,316.027 237.5,314.5C 239.117,311.216 241.45,308.549 244.5,306.5C 246.893,305.647 248.226,303.981 248.5,301.5C 249.906,301.027 250.573,300.027 250.5,298.5C 252.117,295.216 254.45,292.549 257.5,290.5C 258.906,290.027 259.573,289.027 259.5,287.5C 261.117,284.216 263.45,281.549 266.5,279.5C 268.893,278.647 270.226,276.981 270.5,274.5C 271.906,274.027 272.573,273.027 272.5,271.5C 274.817,267.854 277.484,264.52 280.5,261.5 Z"/></g>
<g><path style="opacity:0.345" fill="#282828" d="M 653.5,262.5 C 655.262,263.262 656.262,264.596 656.5,266.5C 654.738,265.738 653.738,264.404 653.5,262.5 Z"/></g>
<g><path style="opacity:0.345" fill="#282828" d="M 658.5,268.5 C 660.262,269.262 661.262,270.596 661.5,272.5C 659.738,271.738 658.738,270.404 658.5,268.5 Z"/></g>
<g><path style="opacity:0.671" fill="#5e5e5e" d="M 272.5,271.5 C 272.573,273.027 271.906,274.027 270.5,274.5C 270.427,272.973 271.094,271.973 272.5,271.5 Z"/></g>
<g><path style="opacity:0.345" fill="#282828" d="M 663.5,274.5 C 665.262,275.262 666.262,276.596 666.5,278.5C 664.738,277.738 663.738,276.404 663.5,274.5 Z"/></g>
<g><path style="opacity:0.996" fill="#a3a3a3" d="M 270.5,274.5 C 270.226,276.981 268.893,278.647 266.5,279.5C 267.08,277.251 268.413,275.585 270.5,274.5 Z"/></g>
<g><path style="opacity:0.345" fill="#282828" d="M 668.5,280.5 C 670.587,281.585 671.92,283.251 672.5,285.5C 670.413,284.415 669.08,282.749 668.5,280.5 Z"/></g>
<g><path style="opacity:0.576" fill="#747474" d="M 348.5,282.5 C 348.735,281.903 349.235,281.57 350,281.5C 353.471,282.371 356.638,283.704 359.5,285.5C 355.777,284.703 352.11,283.703 348.5,282.5 Z"/></g>
<g><path style="opacity:0.345" fill="#2f2f2f" d="M 672.5,285.5 C 674.914,286.911 676.581,288.911 677.5,291.5C 675.086,290.089 673.419,288.089 672.5,285.5 Z"/></g>
<g><path style="opacity:0.671" fill="#5e5e5e" d="M 259.5,287.5 C 259.573,289.027 258.906,290.027 257.5,290.5C 257.427,288.973 258.094,287.973 259.5,287.5 Z"/></g>
<g><path style="opacity:0.647" fill="#979797" d="M 364.5,287.5 C 364.735,286.903 365.235,286.57 366,286.5C 371.412,288.891 377.079,289.891 383,289.5C 441.531,289.242 500.364,289.242 559.5,289.5C 559.5,290.167 559.167,290.5 558.5,290.5C 496.07,290.628 434.404,290.628 373.5,290.5C 370.579,289.304 367.579,288.304 364.5,287.5 Z"/></g>
<g><path style="opacity:0.804" fill="#bdbdbd" d="M 373.5,290.5 C 434.404,290.628 496.07,290.628 558.5,290.5C 579.631,333.747 600.298,376.747 620.5,419.5C 518.999,419.51 417.332,419.51 315.5,419.5C 316.352,416.777 317.519,414.11 319,411.5C 319.765,409.934 319.598,408.601 318.5,407.5C 318.5,406.833 318.833,406.5 319.5,406.5C 325.322,399.185 329.322,390.852 331.5,381.5C 331.402,379.447 332.069,377.78 333.5,376.5C 335.223,374.747 336.723,372.747 338,370.5C 347.339,350.319 356.839,330.152 366.5,310C 365.906,309.536 365.239,309.369 364.5,309.5C 367.693,303.252 370.693,296.919 373.5,290.5 Z"/></g>
<g><path style="opacity:0.345" fill="#2f2f2f" d="M 677.5,291.5 C 679.914,292.911 681.581,294.911 682.5,297.5C 680.086,296.089 678.419,294.089 677.5,291.5 Z"/></g>
<g><path style="opacity:0.604" fill="#595959" d="M 250.5,298.5 C 250.573,300.027 249.906,301.027 248.5,301.5C 248.427,299.973 249.094,298.973 250.5,298.5 Z"/></g>
<g><path style="opacity:0.345" fill="#282828" d="M 684.5,299.5 C 686.262,300.262 687.262,301.596 687.5,303.5C 685.738,302.738 684.738,301.404 684.5,299.5 Z"/></g>
<g><path style="opacity:0.996" fill="#a3a3a3" d="M 248.5,301.5 C 248.226,303.981 246.893,305.647 244.5,306.5C 245.08,304.251 246.413,302.585 248.5,301.5 Z"/></g>
<g><path style="opacity:0.345" fill="#282828" d="M 689.5,305.5 C 691.262,306.262 692.262,307.596 692.5,309.5C 690.738,308.738 689.738,307.404 689.5,305.5 Z"/></g>
<g><path style="opacity:0.345" fill="#282828" d="M 694.5,311.5 C 696.262,312.262 697.262,313.596 697.5,315.5C 695.738,314.738 694.738,313.404 694.5,311.5 Z"/></g>
<g><path style="opacity:0.671" fill="#5e5e5e" d="M 237.5,314.5 C 237.573,316.027 236.906,317.027 235.5,317.5C 235.427,315.973 236.094,314.973 237.5,314.5 Z"/></g>
<g><path style="opacity:0.345" fill="#282828" d="M 699.5,317.5 C 701.587,318.585 702.92,320.251 703.5,322.5C 701.413,321.415 700.08,319.749 699.5,317.5 Z"/></g>
<g><path style="opacity:0.345" fill="#2f2f2f" d="M 703.5,322.5 C 705.914,323.911 707.581,325.911 708.5,328.5C 706.086,327.089 704.419,325.089 703.5,322.5 Z"/></g>
<g><path style="opacity:0.671" fill="#5e5e5e" d="M 228.5,325.5 C 228.573,327.027 227.906,328.027 226.5,328.5C 226.427,326.973 227.094,325.973 228.5,325.5 Z"/></g>
<g><path style="opacity:0.996" fill="#a3a3a3" d="M 226.5,328.5 C 226.226,330.981 224.893,332.647 222.5,333.5C 223.08,331.251 224.413,329.585 226.5,328.5 Z"/></g>
<g><path style="opacity:0.345" fill="#2f2f2f" d="M 708.5,328.5 C 710.914,329.911 712.581,331.911 713.5,334.5C 711.086,333.089 709.419,331.089 708.5,328.5 Z"/></g>
<g><path style="opacity:0.345" fill="#282828" d="M 715.5,336.5 C 717.262,337.262 718.262,338.596 718.5,340.5C 716.738,339.738 715.738,338.404 715.5,336.5 Z"/></g>
<g><path style="opacity:0.671" fill="#5e5e5e" d="M 215.5,341.5 C 215.573,343.027 214.906,344.027 213.5,344.5C 213.427,342.973 214.094,341.973 215.5,341.5 Z"/></g>
<g><path style="opacity:0.345" fill="#282828" d="M 720.5,342.5 C 722.262,343.262 723.262,344.596 723.5,346.5C 721.738,345.738 720.738,344.404 720.5,342.5 Z"/></g>
<g><path style="opacity:0.345" fill="#282828" d="M 725.5,348.5 C 727.262,349.262 728.262,350.596 728.5,352.5C 726.738,351.738 725.738,350.404 725.5,348.5 Z"/></g>
<g><path style="opacity:0.604" fill="#595959" d="M 206.5,352.5 C 206.573,354.027 205.906,355.027 204.5,355.5C 204.427,353.973 205.094,352.973 206.5,352.5 Z"/></g>
<g><path style="opacity:0.345" fill="#282828" d="M 730.5,354.5 C 732.262,355.262 733.262,356.596 733.5,358.5C 731.738,357.738 730.738,356.404 730.5,354.5 Z"/></g>
<g><path style="opacity:0.996" fill="#a3a3a3" d="M 204.5,355.5 C 204.226,357.981 202.893,359.647 200.5,360.5C 201.08,358.251 202.413,356.585 204.5,355.5 Z"/></g>
<g><path style="opacity:0.345" fill="#282828" d="M 735.5,360.5 C 737.587,361.585 738.92,363.251 739.5,365.5C 737.413,364.415 736.08,362.749 735.5,360.5 Z"/></g>
<g><path style="opacity:0.718" fill="#a0a0a0" d="M 364.5,309.5 C 365.239,309.369 365.906,309.536 366.5,310C 356.839,330.152 347.339,350.319 338,370.5C 336.723,372.747 335.223,374.747 333.5,376.5C 343.562,354.042 353.895,331.709 364.5,309.5 Z"/></g>
<g><path style="opacity:0.345" fill="#2c2c2c" d="M 739.5,365.5 C 742.861,367.086 744.194,369.419 743.5,372.5C 742.167,370.167 740.833,367.833 739.5,365.5 Z"/></g>
<g><path style="opacity:0.933" fill="#adadad" d="M 194.5,371.5 C 197.328,372.655 199.995,373.989 202.5,375.5C 199.995,374.583 197.662,374.583 195.5,375.5C 193.891,374.335 193.557,373.001 194.5,371.5 Z"/></g>
<g><path style="opacity:0.063" fill="#060606" d="M 743.5,372.5 C 743.573,374.027 742.906,375.027 741.5,375.5C 741.427,373.973 742.094,372.973 743.5,372.5 Z"/></g>
<g><path style="opacity:0.949" fill="#dfdfdf" d="M 202.5,375.5 C 238.782,389.314 274.782,403.647 310.5,418.5C 311.209,419.404 312.209,419.737 313.5,419.5C 361.705,510.372 411.038,601.205 461.5,692C 460.906,692.464 460.239,692.631 459.5,692.5C 371.5,586.833 283.5,481.167 195.5,375.5C 197.662,374.583 199.995,374.583 202.5,375.5 Z"/></g>
<g><path style="opacity:0.494" fill="#808080" d="M 725.5,378.5 C 718.225,382.297 710.558,385.297 702.5,387.5C 709.775,383.703 717.442,380.703 725.5,378.5 Z"/></g>
<g><path style="opacity:0.063" fill="#141414" d="M 738.5,377.5 C 738.833,377.5 739.167,377.5 739.5,377.5C 738.92,379.749 737.587,381.415 735.5,382.5C 736.075,380.589 737.075,378.922 738.5,377.5 Z"/></g>
<g><path style="opacity:0.637" fill="#949494" d="M 331.5,381.5 C 329.322,390.852 325.322,399.185 319.5,406.5C 323.13,397.916 327.13,389.583 331.5,381.5 Z"/></g>
<g><path style="opacity:0.063" fill="#141414" d="M 734.5,383.5 C 733.92,385.749 732.587,387.415 730.5,388.5C 731.08,386.251 732.413,384.585 734.5,383.5 Z"/></g>
<g><path style="opacity:0.063" fill="#161616" d="M 730.5,388.5 C 729.557,391.109 727.89,393.109 725.5,394.5C 726.473,391.865 728.14,389.865 730.5,388.5 Z"/></g>
<g><path style="opacity:0.063" fill="#141414" d="M 724.5,395.5 C 723.92,397.749 722.587,399.415 720.5,400.5C 721.08,398.251 722.413,396.585 724.5,395.5 Z"/></g>
<g><path style="opacity:0.063" fill="#171717" d="M 720.5,400.5 C 716.539,406.759 711.873,412.425 706.5,417.5C 707.072,415.745 707.906,414.078 709,412.5C 712.385,407.951 716.218,403.951 720.5,400.5 Z"/></g>
<g><path style="opacity:0.637" fill="#8e8e8e" d="M 318.5,407.5 C 319.598,408.601 319.765,409.934 319,411.5C 317.519,414.11 316.352,416.777 315.5,419.5C 314.833,419.5 314.167,419.5 313.5,419.5C 312.209,419.737 311.209,419.404 310.5,418.5C 311.822,418.67 312.989,418.337 314,417.5C 315.786,414.264 317.286,410.93 318.5,407.5 Z"/></g>
<g><path style="opacity:0.81" fill="#c1c1c1" d="M 738.5,377.5 C 737.075,378.922 736.075,380.589 735.5,382.5C 735.5,383.167 735.167,383.5 734.5,383.5C 732.413,384.585 731.08,386.251 730.5,388.5C 728.14,389.865 726.473,391.865 725.5,394.5C 725.5,395.167 725.167,395.5 724.5,395.5C 722.413,396.585 721.08,398.251 720.5,400.5C 716.218,403.951 712.385,407.951 709,412.5C 707.906,414.078 707.072,415.745 706.5,417.5C 705.167,417.5 704.5,418.167 704.5,419.5C 702.413,420.585 701.08,422.251 700.5,424.5C 695.766,427.903 692.099,432.236 689.5,437.5C 685.555,440.709 682.055,444.376 679,448.5C 677.579,450.405 676.412,452.405 675.5,454.5C 673.14,455.865 671.473,457.865 670.5,460.5C 668.14,461.865 666.473,463.865 665.5,466.5C 665.5,467.167 665.167,467.5 664.5,467.5C 660.372,470.29 657.372,473.957 655.5,478.5C 655.5,479.167 655.167,479.5 654.5,479.5C 652.086,480.911 650.419,482.911 649.5,485.5C 645.216,488.752 641.882,492.752 639.5,497.5C 632.453,504.605 626.12,512.272 620.5,520.5C 618.086,521.911 616.419,523.911 615.5,526.5C 613.413,527.585 612.08,529.251 611.5,531.5C 603.763,538.574 597.096,546.574 591.5,555.5C 570.429,578.574 550.429,602.574 531.5,627.5C 529.14,628.865 527.473,630.865 526.5,633.5C 518.763,640.574 512.096,648.574 506.5,657.5C 495.429,668.574 485.429,680.574 476.5,693.5C 474.846,694.75 473.179,696.084 471.5,697.5C 471.329,695.007 472.329,693.174 474.5,692C 474.167,691.667 473.833,691.333 473.5,691C 512.064,619.666 553.064,544.166 596.5,464.5C 597.496,464.586 598.329,464.252 599,463.5C 606.42,448.318 614.587,433.651 623.5,419.5C 650.035,409.056 676.369,398.39 702.5,387.5C 710.558,385.297 718.225,382.297 725.5,378.5C 728.028,377.989 730.528,377.322 733,376.5C 735.004,377.369 736.837,377.702 738.5,377.5 Z"/></g>
<g><path style="opacity:0.071" fill="#1d1d1d" d="M 706.5,417.5 C 706.167,418.5 705.5,419.167 704.5,419.5C 704.5,418.167 705.167,417.5 706.5,417.5 Z"/></g>
<g><path style="opacity:0.851" fill="#c9c9c9" d="M 313.5,419.5 C 314.167,419.5 314.833,419.5 315.5,419.5C 417.332,419.51 518.999,419.51 620.5,419.5C 612.245,434.341 604.245,449.341 596.5,464.5C 553.064,544.166 512.064,619.666 473.5,691C 473.833,691.333 474.167,691.667 474.5,692C 472.329,693.174 471.329,695.007 471.5,697.5C 471.5,698.167 471.5,698.833 471.5,699.5C 471.5,700.167 471.167,700.5 470.5,700.5C 469.542,700.953 468.708,701.619 468,702.5C 466.951,700.616 465.451,699.282 463.5,698.5C 462.585,696.246 461.252,694.246 459.5,692.5C 460.239,692.631 460.906,692.464 461.5,692C 411.038,601.205 361.705,510.372 313.5,419.5 Z"/></g>
<g><path style="opacity:0.063" fill="#141414" d="M 704.5,419.5 C 703.92,421.749 702.587,423.415 700.5,424.5C 701.08,422.251 702.413,420.585 704.5,419.5 Z"/></g>
<g><path style="opacity:0.063" fill="#191919" d="M 700.5,424.5 C 697.179,429.152 693.513,433.485 689.5,437.5C 692.099,432.236 695.766,427.903 700.5,424.5 Z"/></g>
<g><path style="opacity:0.063" fill="#181818" d="M 689.5,437.5 C 685.582,443.754 680.915,449.421 675.5,454.5C 676.412,452.405 677.579,450.405 679,448.5C 682.055,444.376 685.555,440.709 689.5,437.5 Z"/></g>
<g><path style="opacity:0.063" fill="#161616" d="M 675.5,454.5 C 674.557,457.109 672.89,459.109 670.5,460.5C 671.473,457.865 673.14,455.865 675.5,454.5 Z"/></g>
<g><path style="opacity:0.063" fill="#151515" d="M 670.5,460.5 C 669.557,463.109 667.89,465.109 665.5,466.5C 666.473,463.865 668.14,461.865 670.5,460.5 Z"/></g>
<g><path style="opacity:0.071" fill="#181818" d="M 664.5,467.5 C 661.871,471.463 658.871,475.129 655.5,478.5C 657.372,473.957 660.372,470.29 664.5,467.5 Z"/></g>
<g><path style="opacity:0.176" fill="#242424" d="M 192.5,369.5 C 192.5,370.833 193.167,371.5 194.5,371.5C 193.557,373.001 193.891,374.335 195.5,375.5C 283.5,481.167 371.5,586.833 459.5,692.5C 461.252,694.246 462.585,696.246 463.5,698.5C 373.447,591.422 283.614,484.089 194,376.5C 192.924,374.933 192.091,373.266 191.5,371.5C 191.543,370.584 191.876,369.917 192.5,369.5 Z"/></g>
<g><path style="opacity:0.071" fill="#171717" d="M 654.5,479.5 C 653.581,482.089 651.914,484.089 649.5,485.5C 650.419,482.911 652.086,480.911 654.5,479.5 Z"/></g>
<g><path style="opacity:0.063" fill="#141414" d="M 649.5,485.5 C 646.641,489.878 643.308,493.878 639.5,497.5C 641.882,492.752 645.216,488.752 649.5,485.5 Z"/></g>
<g><path style="opacity:0.004" fill="#121212" d="M 639.5,497.5 C 633.88,505.728 627.547,513.395 620.5,520.5C 626.12,512.272 632.453,504.605 639.5,497.5 Z"/></g>
<g><path style="opacity:0.063" fill="#141414" d="M 620.5,520.5 C 619.581,523.089 617.914,525.089 615.5,526.5C 616.419,523.911 618.086,521.911 620.5,520.5 Z"/></g>
<g><path style="opacity:0.004" fill="#040404" d="M 615.5,526.5 C 614.92,528.749 613.587,530.415 611.5,531.5C 612.08,529.251 613.413,527.585 615.5,526.5 Z"/></g>
<g><path style="opacity:0.004" fill="#111111" d="M 611.5,531.5 C 605.18,539.817 598.514,547.817 591.5,555.5C 597.096,546.574 603.763,538.574 611.5,531.5 Z"/></g>
<g><path style="opacity:0.004" fill="#131313" d="M 591.5,555.5 C 571.847,579.817 551.847,603.817 531.5,627.5C 550.429,602.574 570.429,578.574 591.5,555.5 Z"/></g>
<g><path style="opacity:0.063" fill="#0a0a0a" d="M 531.5,627.5 C 530.557,630.109 528.89,632.109 526.5,633.5C 527.473,630.865 529.14,628.865 531.5,627.5 Z"/></g>
<g><path style="opacity:0.004" fill="#111111" d="M 526.5,633.5 C 520.18,641.817 513.514,649.817 506.5,657.5C 512.096,648.574 518.763,640.574 526.5,633.5 Z"/></g>
<g><path style="opacity:0.004" fill="#121212" d="M 506.5,657.5 C 496.847,669.817 486.847,681.817 476.5,693.5C 485.429,680.574 495.429,668.574 506.5,657.5 Z"/></g>
<g><path style="opacity:0.063" fill="#0a0a0a" d="M 476.5,693.5 C 475.557,696.109 473.89,698.109 471.5,699.5C 471.5,698.833 471.5,698.167 471.5,697.5C 473.179,696.084 474.846,694.75 476.5,693.5 Z"/></g>
<g><path style="opacity:0.176" fill="#181818" d="M 463.5,698.5 C 465.451,699.282 466.951,700.616 468,702.5C 468.708,701.619 469.542,700.953 470.5,700.5C 470.582,702.252 469.749,703.252 468,703.5C 465.599,702.601 464.099,700.934 463.5,698.5 Z"/></g>
</svg>
